<?xml version="1.0"?>
<svg xmlns="http://www.w3.org/2000/svg" xmlns:xlink="http://www.w3.org/1999/xlink" xmlns:svgjs="http://svgjs.com/svgjs" version="1.1" width="512" height="512" x="0" y="0" viewBox="0 0 64 64" style="enable-background:new 0 0 512 512" xml:space="preserve" class=""><g><g xmlns="http://www.w3.org/2000/svg"><path d="m40.127 56.829-.512-3.311c-1.182.306-2.398.482-3.614.482-.003 0-.005 0-.008 0-1.214-.001-2.428-.176-3.608-.482l-.512 3.311-11.786 1.522c-2.161.279-4.193 1.218-5.811 2.648h43.447c-1.617-1.431-3.649-2.369-5.811-2.648z" fill="#bf925b" data-original="#000000" style="" class=""/><path d="m25 39.649c0-2.012-1.637-3.649-3.649-3.649-1.573 0-2.964 1.003-3.462 2.495l-.744 2.234 3.126 3.126 2.234-.744c1.492-.498 2.495-1.888 2.495-3.462z" fill="#bf925b" data-original="#000000" style="" class=""/><path d="m54.45 13.913 1.1-1.67c1.022.673 1.94 1.394 2.762 2.151-2.495-6.526-11.584-11.394-22.312-11.394-10.726 0-19.814 4.866-22.31 11.391 1.351-1.247 2.972-2.386 4.841-3.38l.939 1.766c-5.383 2.864-8.47 6.954-8.47 11.223 0 2.944 1.488 5.809 4.201 8.258-.12-1.009-.201-2.023-.201-3.046 0-7.837 6.375-14.212 14.212-14.212h13.576c7.837 0 14.212 6.375 14.212 14.212 0 1.025-.077 2.038-.197 3.042 2.71-2.447 4.197-5.311 4.197-8.254 0-3.723-2.326-7.305-6.55-10.087zm-33.051-2.066-.799-1.834c2.813-1.225 5.927-2.091 9.256-2.574l.287 1.979c-3.152.458-6.094 1.275-8.744 2.429zm27.265-.764c-1.237-.441-2.545-.819-3.886-1.123l.443-1.951c1.418.322 2.802.723 4.114 1.189z" fill="#bf925b" data-original="#000000" style="" class=""/><path d="m15.974 42.389-12.181 11.31c-.504.469-.793 1.132-.793 1.82 0 1.368 1.113 2.481 2.481 2.481.688 0 1.351-.289 1.819-.793l11.31-12.181z" fill="#bf925b" data-original="#000000" style="" class=""/><path d="m30.712 50.817c1.642.772 3.469 1.182 5.283 1.183h.006c1.815 0 3.645-.409 5.288-1.183 8.328-3.919 13.71-12.399 13.711-21.605 0-6.733-5.479-12.212-12.212-12.212h-13.576c-6.733 0-12.212 5.479-12.212 12.212 0 2.058.271 4.091.791 6.069.984-.802 2.225-1.281 3.56-1.281 3.115 0 5.649 2.534 5.649 5.649 0 2.436-1.552 4.589-3.862 5.358l-.127.042c2.143 2.415 4.78 4.395 7.701 5.768zm14.288-26.817c3.866 0 7 1.791 7 4s-3.134 4-7 4-7-1.791-7-4 3.134-4 7-4zm-2 19c0 2.209-3.134 4-7 4s-7-1.791-7-4 3.134-4 7-4 7 1.791 7 4zm-23-15c0-2.209 3.134-4 7-4s7 1.791 7 4-3.134 4-7 4-7-1.791-7-4z" fill="#bf925b" data-original="#000000" style="" class=""/><path d="m45 30c1.615 0 3.067-.897 3.789-2.342l.105-.211-1.789-.895-.105.212c-.381.762-1.147 1.236-2 1.236s-1.619-.474-2-1.236l-.105-.211-1.789.895.105.211c.722 1.444 2.174 2.341 3.789 2.341z" fill="#bf925b" data-original="#000000" style="" class=""/><path d="m36 45c1.615 0 3.067-.897 3.789-2.342l.105-.211-1.789-.895-.105.212c-.381.762-1.147 1.236-2 1.236s-1.619-.474-2-1.236l-.105-.211-1.789.895.105.211c.722 1.444 2.174 2.341 3.789 2.341z" fill="#bf925b" data-original="#000000" style="" class=""/><path d="m30.789 27.658.105-.211-1.789-.895-.105.212c-.381.762-1.147 1.236-2 1.236s-1.619-.474-2-1.236l-.105-.211-1.789.895.105.211c.722 1.444 2.174 2.341 3.789 2.341s3.067-.897 3.789-2.342z" fill="#bf925b" data-original="#000000" style="" class=""/></g></g></svg>
